# xmcd CD database file
#
# Track frame offsets:
#	150
#	16322
#	30497
#	42415
#	67885
#	87095
#	107937
#	120445
#	139437
#	160810
#	176192
#	202350
#	217912
#	238020
#	258222
#	274195
#	293020
#	317175
#
# Disc length: 4464 seconds
#
# Revision: 4
# Processed by: cddbd v1.5.2PL0 Copyright (c) Steve Scherf et al.
# Submitted via: CDex 1.70beta2
#
DISCID=09116e12
DTITLE=Johnny Winter - The Very Best Of Vol. 1
DYEAR=1992
DGENRE=Blues
TTITLE0=Silver Train
TTITLE1=Soul Man
TTITLE2=Boney Moroney
TTITLE3=Like A Rolling Stone
TTITLE4=Mind Over Matter
TTITLE5=Good Morning Little School Girl
TTITLE6=Rock and Roll People
TTITLE7=Let It Bleed
TTITLE8=Rock and Roll
TTITLE9=Pick Up On My Mojo
TTITLE10=It`s All Over Now
TTITLE11=Let the Good Times Roll
TTITLE12=Jumpin` Jack Flash
TTITLE13=Blinded by Love
TTITLE14=Rock and Roll Hoochie Koo
TTITLE15=Lay Down Your Sorrows
TTITLE16=You Lost That Lovin` Feelin'
TTITLE17=Stranger
EXTD=YEAR: 1992
EXTT0=
EXTT1=
EXTT2=
EXTT3=
EXTT4=
EXTT5=
EXTT6=
EXTT7=
EXTT8=
EXTT9=
EXTT10=
EXTT11=
EXTT12=
EXTT13=
EXTT14=
EXTT15=
EXTT16=
EXTT17=
PLAYORDER=
